<svg width="98" height="12" fill="none" xmlns="http://www.w3.org/2000/svg"><path d="M2.44 7.667v4.17H0V0h4.619c.89 0 1.67.163 2.342.488.678.325 1.198.788 1.561 1.39.364.596.545 1.276.545 2.04 0 1.16-.398 2.077-1.195 2.749-.792.666-1.89 1-3.294 1H2.44zm0-1.976h2.179c.645 0 1.136-.152 1.472-.455.341-.304.512-.737.512-1.301 0-.58-.17-1.049-.512-1.407-.342-.357-.813-.542-1.415-.552H2.44V5.69zM15.54 5.244a6.387 6.387 0 0 0-.845-.065c-.89 0-1.472.3-1.749.902v5.756h-2.35V3.041h2.22l.065 1.048c.472-.807 1.125-1.211 1.96-1.211.26 0 .504.035.732.106l-.033 2.26zM20.566 12c-1.29 0-2.342-.396-3.155-1.187-.808-.791-1.212-1.846-1.212-3.163v-.227c0-.884.17-1.672.512-2.366.342-.7.825-1.236 1.448-1.61.629-.38 1.345-.569 2.147-.569 1.203 0 2.15.38 2.838 1.138.694.76 1.04 1.835 1.04 3.228v.96h-5.602c.076.574.303 1.034.683 1.381.385.347.87.52 1.456.52.905 0 1.613-.327 2.122-.983l1.155 1.293c-.353.498-.83.889-1.431 1.17a4.736 4.736 0 0 1-2 .415zm-.268-7.22c-.466 0-.846.158-1.139.472-.287.314-.471.764-.553 1.35h3.27v-.187c-.012-.52-.152-.922-.424-1.204-.27-.287-.655-.43-1.154-.43zM30.625 11.837a2.61 2.61 0 0 1-.235-.788c-.57.634-1.31.951-2.22.951-.862 0-1.578-.25-2.147-.748-.564-.499-.846-1.127-.846-1.886 0-.932.344-1.648 1.033-2.146.694-.5 1.694-.751 3-.757h1.082V5.96c0-.406-.106-.731-.317-.975-.206-.244-.534-.366-.984-.366-.396 0-.707.095-.935.284-.223.19-.334.45-.334.78h-2.35c0-.509.157-.98.472-1.414.314-.433.759-.772 1.333-1.016.575-.25 1.22-.374 1.936-.374 1.084 0 1.944.274 2.578.821.64.542.96 1.306.96 2.293v3.813c.005.835.121 1.466.35 1.894v.138h-2.375zm-1.943-1.634c.347 0 .667-.076.96-.227.292-.158.51-.366.65-.626V7.837h-.878c-1.177 0-1.803.407-1.879 1.22l-.008.138a.94.94 0 0 0 .31.724c.205.19.487.284.845.284zM38.115 10.106c.434 0 .786-.12 1.057-.358.271-.239.412-.556.423-.951H41.8a3.033 3.033 0 0 1-.488 1.642c-.32.493-.759.878-1.317 1.155a4.12 4.12 0 0 1-1.838.406c-1.258 0-2.25-.398-2.977-1.195-.726-.802-1.09-1.908-1.09-3.317v-.155c0-1.355.361-2.436 1.082-3.244.721-.807 1.71-1.211 2.969-1.211 1.1 0 1.981.314 2.642.943.667.623 1.006 1.455 1.017 2.496h-2.204c-.01-.455-.152-.824-.423-1.106-.27-.287-.628-.43-1.073-.43-.548 0-.962.2-1.244.601-.277.396-.415 1.04-.415 1.935v.244c0 .905.138 1.556.415 1.951.276.396.696.594 1.26.594zM45.955.878v2.163h1.504v1.723h-1.505v4.39c0 .326.063.559.188.7.124.14.363.211.715.211.26 0 .49-.019.691-.057v1.78a4.84 4.84 0 0 1-1.423.212c-1.648 0-2.488-.832-2.52-2.496v-4.74H42.32V3.041h1.284V.878h2.35zM53.534 9.406c0-.287-.144-.512-.431-.674-.282-.168-.738-.317-1.367-.447-2.092-.44-3.139-1.328-3.139-2.667 0-.78.323-1.431.968-1.951.65-.526 1.5-.789 2.546-.789 1.116 0 2.008.263 2.675.789.672.525 1.008 1.208 1.008 2.048h-2.35c0-.336-.108-.612-.325-.829-.217-.222-.556-.333-1.017-.333-.395 0-.702.09-.918.268a.847.847 0 0 0-.326.683c0 .26.122.472.366.634.25.157.667.296 1.253.415a9.902 9.902 0 0 1 1.48.39c1.241.455 1.862 1.244 1.862 2.366 0 .802-.345 1.453-1.033 1.951-.689.493-1.578.74-2.667.74-.738 0-1.394-.13-1.968-.39-.57-.266-1.017-.626-1.342-1.082a2.53 2.53 0 0 1-.488-1.487h2.228c.022.417.176.737.464.959.287.222.672.333 1.154.333.45 0 .79-.084 1.017-.252a.804.804 0 0 0 .35-.675zM60.153.878v2.163h1.505v1.723h-1.505v4.39c0 .326.063.559.187.7.125.14.363.211.716.211.26 0 .49-.019.691-.057v1.78a4.84 4.84 0 0 1-1.423.212c-1.648 0-2.488-.832-2.521-2.496v-4.74h-1.285V3.041h1.285V.878h2.35zM68.066 11.837a2.61 2.61 0 0 1-.236-.788c-.57.634-1.31.951-2.22.951-.862 0-1.578-.25-2.147-.748-.564-.499-.846-1.127-.846-1.886 0-.932.345-1.648 1.033-2.146.694-.5 1.694-.751 3-.757h1.082V5.96c0-.406-.105-.731-.317-.975-.206-.244-.534-.366-.984-.366-.396 0-.707.095-.935.284-.222.19-.333.45-.333.78h-2.35c0-.509.157-.98.471-1.414.315-.433.759-.772 1.334-1.016.574-.25 1.22-.374 1.935-.374 1.084 0 1.944.274 2.578.821.64.542.96 1.306.96 2.293v3.813c.005.835.122 1.466.35 1.894v.138h-2.375zm-1.944-1.634c.347 0 .667-.076.96-.227.293-.158.51-.366.65-.626V7.837h-.878c-1.176 0-1.803.407-1.879 1.22l-.008.138a.94.94 0 0 0 .31.724c.205.19.487.284.845.284zM76.84 5.244a6.387 6.387 0 0 0-.846-.065c-.889 0-1.471.3-1.748.902v5.756h-2.35V3.041h2.22l.065 1.048c.472-.807 1.125-1.211 1.96-1.211.26 0 .504.035.732.106l-.033 2.26zM81.2.878v2.163h1.504v1.723h-1.505v4.39c0 .326.062.559.187.7.125.14.363.211.716.211.26 0 .49-.019.691-.057v1.78A4.84 4.84 0 0 1 81.37 12c-1.648 0-2.489-.832-2.521-2.496v-4.74h-1.285V3.041h1.285V.878h2.35zM88.063 12c-1.29 0-2.343-.396-3.156-1.187-.807-.791-1.211-1.846-1.211-3.163v-.227c0-.884.17-1.672.512-2.366.341-.7.824-1.236 1.448-1.61.628-.38 1.344-.569 2.146-.569 1.204 0 2.15.38 2.838 1.138.694.76 1.041 1.835 1.041 3.228v.96h-5.603c.076.574.304 1.034.683 1.381.385.347.87.52 1.456.52.905 0 1.613-.327 2.123-.983l1.154 1.293c-.352.498-.83.889-1.43 1.17a4.736 4.736 0 0 1-2.001.415zm-.269-7.22c-.466 0-.846.158-1.138.472-.288.314-.472.764-.553 1.35h3.269v-.187c-.011-.52-.152-.922-.423-1.204-.271-.287-.656-.43-1.155-.43zM97.968 5.244a6.387 6.387 0 0 0-.846-.065c-.89 0-1.472.3-1.749.902v5.756h-2.35V3.041h2.22l.065 1.048c.472-.807 1.125-1.211 1.96-1.211.26 0 .504.035.732.106l-.032 2.26z" fill="#4DD0E1"/></svg>